<?xml version="1.0" encoding="UTF-8"?>
<svg id="Layer_1" data-name="Layer 1" xmlns="http://www.w3.org/2000/svg" viewBox="0 0 238.22 147.65">
  <defs>
    <style>
      .cls-1 {
        fill: #fff;
      }

      .cls-2 {
        fill: #e6e6e6;
      }

      .cls-3 {
        fill: #010101;
      }
    </style>
  </defs>
  <g>
    <g>
      <path class="cls-2" d="M65.73,39.57c-7.99,14.79-3.89,32.5,9.16,39.55,13.05,7.05,30.11,.77,38.1-14.02,7.99-14.79,3.89-32.5-9.16-39.55-13.05-7.05-30.11-.77-38.1,14.02Z"/>
      <path d="M86.42,82.5c-4.05,0-8.07-.95-11.77-2.94-6.44-3.48-10.96-9.59-12.72-17.2-1.76-7.59-.56-15.77,3.36-23.03,3.92-7.26,10.11-12.74,17.42-15.43,7.33-2.7,14.92-2.27,21.36,1.21,13.27,7.17,17.47,25.22,9.36,40.23-5.85,10.83-16.54,17.17-27.02,17.17Zm5.86-59.36c-3.04,0-6.16,.56-9.22,1.69-7.08,2.61-13.08,7.92-16.89,14.97h0c-3.81,7.05-4.97,14.98-3.27,22.33,1.7,7.33,6.04,13.21,12.22,16.55,12.79,6.91,29.58,.71,37.42-13.82,7.85-14.53,3.83-31.97-8.96-38.88-3.5-1.89-7.35-2.84-11.31-2.84Z"/>
    </g>
    <path class="cls-1" d="M103.83,25.55c-4.28-2.31-9-3.18-13.68-2.8-8.29,1.84-16.1,7.59-20.79,16.27-7.99,14.79-3.89,32.5,9.16,39.55,4.28,2.31,9,3.18,13.68,2.79,8.29-1.85,16.1-7.59,20.79-16.27,7.99-14.79,3.89-32.5-9.16-39.55Z"/>
    <g>
      <path class="cls-3" d="M83.45,29.74c-4.52,4.86-4.25,12.47,.61,16.99,4.86,4.52,12.46,4.25,16.99-.61,4.52-4.86,4.25-12.46-.61-16.99-4.86-4.52-12.47-4.25-16.99,.61Z"/>
      <path class="cls-1" d="M101.55,46.59c-4.78,5.13-12.82,5.42-17.96,.64h0c-5.13-4.78-5.43-12.82-.65-17.96h0c4.78-5.14,12.83-5.42,17.96-.64h0c5.14,4.78,5.42,12.82,.64,17.96h0Zm-1.01-.94c4.25-4.59,4-11.75-.58-16.01h0c-4.59-4.26-11.74-4-16.01,.57h0c-4.25,4.59-4,11.74,.58,16.01h0c4.59,4.25,11.74,4,16.01-.57h0Z"/>
    </g>
    <path class="cls-1" d="M89.79,29.92c-1.02,1.1-.96,2.81,.14,3.83,1.1,1.02,2.81,.96,3.84-.14,1.02-1.1,.96-2.81-.14-3.83-1.09-1.02-2.81-.96-3.84,.14Z"/>
  </g>
  <g>
    <g>
      <path class="cls-2" d="M173.53,39.57c7.99,14.79,3.89,32.5-9.16,39.55-13.05,7.05-30.11,.77-38.1-14.02-7.99-14.79-3.89-32.5,9.16-39.55,13.05-7.05,30.11-.77,38.1,14.02Z"/>
      <path d="M152.85,82.5c-10.48,0-21.16-6.34-27.02-17.17-8.11-15.01-3.91-33.06,9.36-40.23,6.44-3.48,14.02-3.91,21.36-1.21,7.31,2.69,13.5,8.17,17.42,15.43,3.92,7.26,5.12,15.44,3.36,23.03-1.76,7.61-6.28,13.72-12.72,17.2-3.7,2-7.72,2.94-11.76,2.94Zm-5.86-59.36c-3.96,0-7.82,.95-11.31,2.84-12.79,6.91-16.8,24.35-8.96,38.88,7.85,14.53,24.64,20.73,37.43,13.82,6.18-3.34,10.52-9.22,12.22-16.55,1.7-7.35,.54-15.28-3.27-22.33h0c-3.81-7.05-9.8-12.36-16.89-14.97-3.07-1.13-6.18-1.69-9.22-1.69Z"/>
    </g>
    <path class="cls-1" d="M135.43,25.55c4.28-2.31,9-3.18,13.68-2.8,8.29,1.84,16.1,7.59,20.79,16.27,7.99,14.79,3.89,32.5-9.16,39.55-4.28,2.31-9,3.18-13.68,2.79-8.29-1.85-16.1-7.59-20.79-16.27-7.99-14.79-3.89-32.5,9.16-39.55Z"/>
    <g>
      <path class="cls-3" d="M155.82,29.74c4.52,4.86,4.25,12.47-.61,16.99-4.86,4.52-12.46,4.25-16.99-.61-4.52-4.86-4.25-12.46,.61-16.99,4.86-4.52,12.47-4.25,16.99,.61Z"/>
      <path class="cls-1" d="M137.71,46.59c-4.78-5.14-4.49-13.18,.64-17.96h0c5.14-4.78,13.18-4.5,17.96,.64h0c4.78,5.14,4.49,13.18-.65,17.96h0c-5.14,4.78-13.18,4.49-17.96-.64h0Zm1.01-.94c4.27,4.57,11.43,4.82,16.01,.57h0c4.58-4.27,4.83-11.43,.58-16.01h0c-4.27-4.57-11.42-4.83-16.01-.57h0c-4.57,4.27-4.83,11.42-.58,16.01h0Z"/>
    </g>
    <path class="cls-1" d="M149.48,29.92c1.02,1.1,.96,2.81-.14,3.83-1.1,1.02-2.81,.96-3.84-.14-1.02-1.1-.96-2.81,.14-3.83,1.09-1.02,2.81-.96,3.84,.14Z"/>
  </g>
  <g>
    <path d="M221.83,80.54c-.12-.02-.24,.06-.26,.17-.9,5.1-6.73,8.4-15.04,10.45-8.29,2.05-18.99,2.83-29.47,2.96-.96,.01-1.91,.02-2.86,.02-.04,.14-.07,.27-.11,.41,.99,0,1.98,0,2.97-.02,10.5-.13,21.23-.91,29.59-2.97,8.34-2.06,14.39-5.41,15.37-10.79,.02-.11-.07-.22-.19-.23Z"/>
    <path d="M201.77,113.38c-8.09-4.7-19.2-8.82-29.94-12.14-.05,.13-.1,.26-.15,.39,3.57,1.11,7.18,2.29,10.72,3.57,8.23,2.97,16,6.38,21.68,10.1,5.7,3.73,9.28,7.77,9.25,11.95,0,.53-.06,1.06-.18,1.59-.02,.11,.05,.22,.18,.24,.01,0,.03,0,.05,0,.11,0,.2-.07,.22-.17,.12-.56,.19-1.12,.19-1.67,.01-5.04-4.83-9.68-12.01-13.87Z"/>
    <path d="M225.43,100.66c-.08-.08-.23-.09-.32-.01-1.12,.93-4.33,1.42-8.81,1.47-10.34,.13-27.57-1.85-43.3-4.06-.05,.13-.09,.27-.14,.4,15.77,2.22,33.03,4.21,43.44,4.07,4.52-.07,7.74-.49,9.1-1.58,.1-.08,.11-.21,.02-.29Z"/>
  </g>
  <g>
    <path d="M16.61,81.56c.12-.02,.24,.05,.26,.17,.85,5.08,6.64,8.23,14.92,10.07,8.27,1.83,18.96,2.34,29.44,2.2,.96-.01,1.91-.03,2.86-.06,.04,.14,.07,.27,.11,.41-.99,.02-1.98,.05-2.97,.06-10.5,.13-21.22-.37-29.56-2.22-8.32-1.85-14.34-5.04-15.26-10.4-.02-.11,.07-.22,.19-.24Z"/>
    <path d="M36.32,113.89c8.14-4.91,19.3-9.31,30.07-12.91,.05,.13,.1,.26,.15,.39-3.59,1.2-7.21,2.48-10.76,3.84-8.26,3.18-16.07,6.79-21.8,10.66-5.74,3.87-9.36,8-9.38,12.19,0,.53,.05,1.06,.17,1.59,.02,.11-.06,.22-.18,.24-.02,0-.03,0-.04,0-.11,0-.2-.07-.22-.16-.12-.56-.17-1.11-.17-1.67,.04-5.04,4.93-9.81,12.16-14.18Z"/>
    <path d="M12.79,101.78c.08-.09,.23-.09,.32-.02,1.1,.9,4.31,1.31,8.79,1.25,10.34-.13,27.59-2.56,43.36-5.17,.04,.13,.09,.26,.13,.39-15.79,2.62-33.08,5.05-43.49,5.18-4.52,.05-7.74-.29-9.09-1.34-.09-.08-.1-.21-.02-.29Z"/>
  </g>
  <path d="M119.66,85.82s-15.79-11.83-.28-11.97c15.51-.13,.28,11.97,.28,11.97Z"/>
  <polygon points="119.15 111.17 119.15 81.72 120.16 81.72 120.16 111.17 119.15 111.17 119.15 111.17"/>
  <path d="M107.05,125.17s.83-3.62,2.77-7.27h0c1.92-3.61,5.02-7.45,9.74-7.48h0c4.71,.03,8.05,3.79,10.24,7.36h0c2.2,3.59,3.29,7.14,3.31,7.17h0l-1.43,.44s-.26-.84-.79-2.12h0c-.53-1.29-1.32-3-2.36-4.71h0c-2.1-3.43-5.17-6.67-8.96-6.64h0c-3.78-.03-6.57,3.21-8.41,6.68h0c-1.83,3.44-2.63,6.89-2.63,6.9h0s-1.46-.34-1.46-.34h0Z"/>
</svg>