<svg id="Livello_1" data-name="Livello 1" xmlns="http://www.w3.org/2000/svg" viewBox="0 0 50.42 41.9"><defs><style>.cls-1{fill:#b1b1b1;}.cls-2{fill:#00945e;}</style></defs><path class="cls-1" d="M24.54,27.49a3,3,0,1,1,0-6H33a3,3,0,0,1,0,6Z"/><path class="cls-1" d="M20.35,38.24V27.31a6.54,6.54,0,0,0-6.06-5.78H3a3,3,0,1,0,0,6H13.87a.56.56,0,0,1,.52.54V38.92a3,3,0,0,0,6,0v-.68Z"/><path class="cls-1" d="M43.83,7.15H31.76a3,3,0,1,0,0,6H43.83a.62.62,0,0,1,0,1.24H24.54a3,3,0,1,0,0,6H43.83a6.59,6.59,0,1,0,0-13.18Z"/><path class="cls-1" d="M36.7,6h6.62a6.6,6.6,0,0,0-6.57-6H20.45a6.54,6.54,0,0,0-6.06,5.78v3.9h0v.68a3,3,0,0,0,6,0V6.5A.58.58,0,0,1,20.87,6H36.7Z"/><path class="cls-2" d="M21.2,17.64a3.83,3.83,0,1,1-3.82-3.83A3.82,3.82,0,0,1,21.2,17.64Z"/></svg>